<svg id="Layer_1" data-name="Layer 1" xmlns="http://www.w3.org/2000/svg" width="17" height="20.02" viewBox="0 0 17 20.02">
  <path d="M10.21,9.74V9.55A.86.86,0,0,1,11,8.82a3.72,3.72,0,0,1,1.28.24,12.88,12.88,0,0,1,2,1,1.4,1.4,0,0,0,.3.15.39.39,0,0,0,.3,0,7.36,7.36,0,0,1,1.56-.59,1.07,1.07,0,0,0,.32-.16A.5.5,0,0,0,17,8.84a1,1,0,0,0-.23-.35l-.31-.3A.18.18,0,0,1,16.39,8a.19.19,0,0,1,.2-.12A1.89,1.89,0,0,1,18,8.39l.12.1h.16s0-.08,0-.12a1.19,1.19,0,0,1,.37-.54c.14-.11.25-.08.33.08s.12.35.2.54l.13-.17a1.84,1.84,0,0,1,.54-.5l.44-.28q.19-.12.27.09a.44.44,0,0,1,0,.32,2.37,2.37,0,0,1-.2.5.76.76,0,0,0,.21,1.05.81.81,0,0,0,.29.12,7.11,7.11,0,0,1,1.55.6.38.38,0,0,0,.41,0A14.14,14.14,0,0,1,25.1,9.05a3.37,3.37,0,0,1,.95-.22,1,1,0,0,1,1,.38.78.78,0,0,1,.12.72,11.6,11.6,0,0,1-1.38,2.83l-.19.3a.65.65,0,0,0-.07.56,4.22,4.22,0,0,1,.15,1.87l-.06.4a.46.46,0,0,0,.3.58l.13,0,.58.08h.12a.2.2,0,0,1,.13.25.18.18,0,0,1-.07.1,1.45,1.45,0,0,1-.71.33H26c-.09,0-.1.09,0,.15a.48.48,0,0,1,.16.16.17.17,0,0,1-.09.3,1.71,1.71,0,0,1-.32,0h-.1c-.18,0-.21,0-.19.23a2.31,2.31,0,0,1,.06.52,1,1,0,0,1-.17.53.15.15,0,0,1-.16.09.17.17,0,0,1-.15-.12,2.62,2.62,0,0,0-.22-.48.48.48,0,0,0-.63-.22l0,0a3.57,3.57,0,0,0-.38.3A7.47,7.47,0,0,1,22,19.79c-.05,0-.12,0-.12.09s.06.07.11.1a6.14,6.14,0,0,1,1.49,1.09,6,6,0,0,1,1.35,2.15,5.1,5.1,0,0,1,.34,1.93,3.27,3.27,0,0,1-.35,1.37,1.37,1.37,0,0,1-1.86.53,1.88,1.88,0,0,1-.23-.16,1.49,1.49,0,0,1-.4-.79,3.81,3.81,0,0,1,0-1.26,6.7,6.7,0,0,0,.06-1.1,3,3,0,0,0-.16-.83.69.69,0,0,0-.1-.19H22a.11.11,0,0,0,0,.08,3.05,3.05,0,0,1-.38,1.62.56.56,0,0,0-.06.31v1.32c0,.2.06.41.06.61a.78.78,0,0,1-.55.81,1.22,1.22,0,0,1-.27,0h-.26a2.28,2.28,0,0,1-.69-.13l-.18-.08a.7.7,0,0,1-.36-.69,3.54,3.54,0,0,0,0-.92c0-.16-.09-.21-.24-.22h-.47c-.1,0-.15.07-.16.2a5.57,5.57,0,0,0,0,1,.59.59,0,0,1-.32.58,1.57,1.57,0,0,1-1,.19,3.44,3.44,0,0,1-.45,0,.68.68,0,0,1-.53-.78A3.29,3.29,0,0,0,16.2,26V24.62a.34.34,0,0,0-.07-.22,3,3,0,0,1-.61-1.4.22.22,0,0,0,0-.16h-.06a.51.51,0,0,0-.09.16,3.27,3.27,0,0,0-.16,1.42c0,.39.08.78.08,1.17a2.66,2.66,0,0,1-.2,1,1.15,1.15,0,0,1-.91.71A1.3,1.3,0,0,1,13,27a1.69,1.69,0,0,1-.47-.79,3.08,3.08,0,0,1-.16-1A5.4,5.4,0,0,1,13,22.75a5.79,5.79,0,0,1,2.39-2.53l.22-.13s0-.05,0-.09a.07.07,0,0,0-.07-.07c-.2-.09-.41-.17-.62-.28a6.76,6.76,0,0,1-1.48-1,.52.52,0,0,0-.47-.16.49.49,0,0,0-.31.21,2.87,2.87,0,0,0-.18.4l-.06.13a.18.18,0,0,1-.23.07.23.23,0,0,1-.07-.07,1,1,0,0,1-.17-.63,1.22,1.22,0,0,1,.06-.46c.06-.15,0-.16-.15-.18h-.5a.18.18,0,0,1,0-.25l0-.05.12-.12s.08-.07.07-.12-.07-.05-.12-.06l-.32-.09a1.32,1.32,0,0,1-.42-.23.21.21,0,0,1-.1-.23.19.19,0,0,1,.19-.16l.63-.09a.5.5,0,0,0,.47-.39.76.76,0,0,0,0-.3A3.27,3.27,0,0,1,12,13.73a.6.6,0,0,0,0-.49c-.1-.18-.22-.35-.33-.53A11.1,11.1,0,0,1,10.27,10,1.1,1.1,0,0,1,10.21,9.74Z" transform="translate(-10.21 -7.46)"/>
</svg>
