<svg id="Layer_1" data-name="Layer 1" xmlns="http://www.w3.org/2000/svg" width="61.65" height="10.33" viewBox="0 0 61.65 10.33">
  <defs>
    <style>
      .cls-1 {
        fill: #1d1d1c;
      }
    </style>
  </defs>
  <path class="cls-1" d="M7.75,17.69H10v3.2c0,1.61-.81,2.53-2.36,2.53s-2.36-.92-2.36-2.53V15.65c0-1.61.8-2.53,2.36-2.53S10,14,10,15.65v1H8.47v-1.1c0-.72-.32-1-.82-1s-.82.27-.82,1V21c0,.72.32,1,.82,1s.82-.26.82-1V19.13H7.75Z" transform="translate(-5.28 -13.12)"/>
  <polygon class="cls-1" points="6.97 6.85 4.98 0.11 6.63 0.11 7.84 4.7 9.05 0.11 10.56 0.11 8.56 6.85 8.56 10.18 6.97 10.18 6.97 6.85"/>
  <polygon class="cls-1" points="14.54 7.27 15.62 0.11 17.82 0.11 17.82 10.18 16.33 10.18 16.33 2.96 15.23 10.18 13.74 10.18 12.56 3.06 12.56 10.18 11.17 10.18 11.17 0.11 13.38 0.11 14.54 7.27"/>
  <path class="cls-1" d="M26.38,13.12c1.54,0,2.33.92,2.33,2.53V16h-1.5v-.42c0-.72-.28-1-.79-1s-.79.27-.79,1c0,2.07,3.1,2.46,3.1,5.34,0,1.61-.81,2.53-2.36,2.53S24,22.5,24,20.89v-.62h1.5V21c0,.72.32,1,.82,1s.82-.26.82-1c0-2.07-3.09-2.46-3.09-5.34,0-1.61.79-2.53,2.33-2.53" transform="translate(-5.28 -13.12)"/>
  <polygon class="cls-1" points="25.93 10.18 24.35 10.18 24.35 0.11 25.93 0.11 25.93 4.43 27.73 4.43 27.73 0.11 29.34 0.11 29.34 10.18 27.73 10.18 27.73 5.87 25.93 5.87 25.93 10.18"/>
  <path class="cls-1" d="M40.89,23.31H39.3L39,21.48H37.08l-.27,1.83H35.36L37,13.24h2.31Zm-3.61-3.2h1.53L38.05,15Z" transform="translate(-5.28 -13.12)"/>
  <path class="cls-1" d="M44.94,23.31a2.91,2.91,0,0,1-.15-1.24V20.49c0-.94-.31-1.28-1-1.28h-.55v4.1H41.63V13.24H44c1.64,0,2.34.76,2.34,2.31v.79a2,2,0,0,1-1,2.05c.79.33,1,1.09,1,2.14v1.55a3,3,0,0,0,.17,1.23Zm-1.73-8.64v3.1h.62c.59,0,1-.26,1-1.07v-1c0-.72-.25-1-.81-1Z" transform="translate(-5.28 -13.12)"/>
  <polygon class="cls-1" points="44.2 6.17 43.71 7.09 43.71 10.18 42.13 10.18 42.13 0.11 43.71 0.11 43.71 4.5 45.78 0.11 47.37 0.11 45.17 4.6 47.37 10.18 45.74 10.18 44.2 6.17"/>
  <polygon class="cls-1" points="61.65 0.11 48.46 0.11 57.99 1.72 54.11 7.66 53.78 7.66 53.24 8.19 52.67 7.66 52.52 7.66 51.97 8.2 51.43 7.66 51.25 7.66 50.7 8.2 50.14 7.66 48.46 7.66 50.68 8.52 51.27 8.24 51.61 8.88 51.77 8.95 52.46 8.61 52.81 9.36 52.95 9.41 52.45 10.19 61.65 0.11"/>
  <polygon class="cls-1" points="50.03 2.4 53.91 3.32 52.24 3.5 50.03 2.4"/>
</svg>
