<svg id="Layer_1" data-name="Layer 1" xmlns="http://www.w3.org/2000/svg" xmlns:xlink="http://www.w3.org/1999/xlink" width="40.96" height="30.72" viewBox="0 0 40.96 30.72">
  <defs>
    <style>
      .cls-1 {
        fill: none;
      }

      .cls-2 {
        clip-path: url(#clip-path);
      }

      .cls-3 {
        clip-path: url(#clip-path-2);
      }

      .cls-4 {
        isolation: isolate;
      }

      .cls-5 {
        fill: #121212;
      }
    </style>
    <clipPath id="clip-path" transform="translate(-1.18 -1.91)">
      <rect class="cls-1" x="5.25" y="22.41" width="19.48" height="0.99"/>
    </clipPath>
    <clipPath id="clip-path-2" transform="translate(-1.18 -1.91)">
      <rect class="cls-1" x="1.18" y="1.91" width="40.96" height="30.72"/>
    </clipPath>
  </defs>
  <rect class="cls-1" x="2.3" y="7.51" width="37.57" height="17.65"/>
  <g class="cls-2">
    <g class="cls-3">
      <image class="cls-4" width="1024" height="768" transform="scale(0.04)" xlink:href="../../../../../../Downloads/Cannes-Lions-logo-logotype1-1024x768.png"/>
    </g>
  </g>
  <g>
    <path class="cls-5" d="M31.93,12.42c.11.15,0,.67.13.63A1.47,1.47,0,0,0,32.48,12c-.15-.28-1.14-.6-1.31-.6-.68,0-.88.51-1,.94,0,.19-.67,1.58-.64,1.58l1.35-1.57A.88.88,0,0,1,31.93,12.42ZM25.45,23.61c-.05.13-.22-.08-.16-.22A.6.6,0,0,1,26,23C26.05,23,25.62,23.22,25.45,23.61Zm7-6.66c.31-.18,1.19-1.58,1.22-1.49a1.3,1.3,0,0,1,0,.73c-.13.35-1.2.78-1.2.78Zm1.75-3a4.17,4.17,0,0,1,.61,2.13,3.64,3.64,0,0,1-1.2,1.8s.46-.87.52-1A4.86,4.86,0,0,0,34.23,13.92Zm2.27.88a1.77,1.77,0,0,1-.31,1.9,4,4,0,0,1-.52.32,2.07,2.07,0,0,0,.63-1,2.19,2.19,0,0,0-.25-1.23c0-.08-.8-1.16-.84-1.23A3.57,3.57,0,0,1,36.5,14.8Zm.31,2a2.45,2.45,0,0,0,.73-1.54A2.72,2.72,0,0,1,37.06,17c-.21,0-.43,0-.64.08A1.72,1.72,0,0,0,36.81,16.77Zm-2.7,3.94c-.89,1.14-2.37,1.09-3.38,1.51a6.56,6.56,0,0,0-2.22,1.52,1.21,1.21,0,0,1-1.08.25,3,3,0,0,1-.59-.15,1,1,0,0,0-.34,0,.23.23,0,0,1,.08-.16,2,2,0,0,1,.59-.15,2.1,2.1,0,0,0,.68-.31c.13-.09,0-.11,0-.09a3.62,3.62,0,0,1-.79.18c-.44.06-.58,0-.74.15s-.14.4-.18.48S26,24,26,24a.47.47,0,0,1,0-.4c0-.17.3-.31.54-.36a3.91,3.91,0,0,0,1.29-.38,22.08,22.08,0,0,0,3.81-2.7,20.66,20.66,0,0,1,4-2.37,14.19,14.19,0,0,1,2.59-.54,1.47,1.47,0,0,0-.57-.22h-.51a2.15,2.15,0,0,0,1.08-1.35c.14-.92-1.08-1.67-1.09-2.5A2.17,2.17,0,0,0,35.23,11a2.22,2.22,0,0,1,.81.88A1,1,0,0,1,35.21,13a12.39,12.39,0,0,0-2,.62c-.2.21.21,1.26-.06,1.69s-1.75,1.15-1.92,1.35a.41.41,0,0,1-.44.14c-.06,0,0,.07.18.11a1.25,1.25,0,0,0,.68-.17c.17-.1.43.12.42.26s-.19.18-.52.39-1-.3-1.08-.47.16-.1.29-.27-.1-.2-.19-.17-.13,0-.22,0a.28.28,0,0,0-.26.07c-.05.06,0,.11-.21.13s-.11-.23-.06-.49A10.68,10.68,0,0,0,30,15.12c0-.1,0,0-.12-.15a1.08,1.08,0,0,1-.09-.5v-.73a1.74,1.74,0,0,0-.22.64,1,1,0,0,0,.22.67,7.32,7.32,0,0,1-.12.94c-.14.72,0,.85.17,1s.87.48.87.48v.33a3.31,3.31,0,0,0-.65.33,1.31,1.31,0,0,0-.47.72c0,.13.05.12.05.12a3.11,3.11,0,0,1,.33-.29,2.31,2.31,0,0,1,.89-.31c.06,0,.08,0,0,.08l-.8.62a1.29,1.29,0,0,0-.56.93c0,.11.07,0,.07,0a1.23,1.23,0,0,1,.24-.31,2.07,2.07,0,0,1,.93-.32A.67.67,0,0,0,31.4,19a5.34,5.34,0,0,1,.57-.6c.07,0,.09,0,.05,0a2.09,2.09,0,0,0-.29.31,1,1,0,0,0-.27.52,1.72,1.72,0,0,1,.4-.36A5.18,5.18,0,0,1,33,18.39h.13a1,1,0,0,1-.24.14,17.52,17.52,0,0,0-1.78,1.16c-.91.68-1.66,1.47-2.4,2a4.55,4.55,0,0,1-1.58.84,5.3,5.3,0,0,1-1.05-.14,1,1,0,0,0-.79.34c-.05.06-.05.11,0,.11s.1-.09.16-.09.07,0,.07,0l-.16.08a.94.94,0,0,0-.39.51,1.24,1.24,0,0,0,.13.68.87.87,0,0,1,.31.07l.39.18a.43.43,0,0,0,.35,0,3,3,0,0,1,.79,0,3.09,3.09,0,0,0,1.9-.17c2-1.75,4.1-1.58,4.86-1.87,1.58-.57,1.3-2.65,4-2.37a2.7,2.7,0,0,0-3.6.68ZM28.2,16.39c.1.12.19.25.28.38a1.55,1.55,0,0,0-.15-.79A2.87,2.87,0,0,1,28,15c-.1-.41-.28-.75,0-1a1.88,1.88,0,0,0,.62-1,3.33,3.33,0,0,1,.84-1.16c.13-.18.28-.34.42-.5a4.21,4.21,0,0,0-.32.79,8.54,8.54,0,0,1-.64,1,3.37,3.37,0,0,0-.64,1.35,3.76,3.76,0,0,0,.44,1.35,9,9,0,0,0,.06,1.27,2.46,2.46,0,0,0,.68.92c.07,0,.06,0,0,0a1.52,1.52,0,0,1-.17-.3,1.08,1.08,0,0,1,0-.79,2.72,2.72,0,0,0,.07-.9c-.1-.41-.22-.81-.36-1.21s.12-.68.46-1.23a3.39,3.39,0,0,0,.42-1.41,1.38,1.38,0,0,1,.8-1.09,2.59,2.59,0,0,1,1.58.34,1,1,0,0,1,.5.62c.06.27-.1.46-.2.68s-.16.56-.05.55A11.84,11.84,0,0,0,34,12a.68.68,0,0,0,.05-.79c-.21-.29-1.71-.4-2-.79a1,1,0,0,0-1.12-.21,3.94,3.94,0,0,1-1,.59,7.5,7.5,0,0,0-1.31.45.93.93,0,0,0-.53.81,4.07,4.07,0,0,1-.51,1.44c-.43.68-.18,1.1,0,1.76a2.37,2.37,0,0,0,.61,1.05ZM31,16.05c0,.08.06,0,.13-.07s.29-.48.67-1.13a5.63,5.63,0,0,0,.59-1.27.38.38,0,0,0-.13.09A1.64,1.64,0,0,0,32,14c-.1.13-.19.11-.31.15s-.38.29-.52.39a1,1,0,0,1-.5.25c-.18,0-.21-.06-.29,0a.22.22,0,0,0-.05.24,1.41,1.41,0,0,1,0,.29.63.63,0,0,0,.19.41c.1.08.06.23.13.27s.08-.27.08-.47,0-.39,0-.42S30.9,15,31,15l.34-.23c.09-.05.1,0,.08,0a.52.52,0,0,1-.18.21.79.79,0,0,1-.4.16s0,0,0,.1a.58.58,0,0,0,.32,0c.11,0,.1.12.08.29a3.16,3.16,0,0,1-.13.53Zm2.59-5.4c.89.29,1.09,1.06.79,1.41a3.46,3.46,0,0,1-.79.59c-.46.29-.64.43-.8.54s-.22.27.1.18c0,0,1.93-.42,2.17-.54.41-.22.53-.37.59-.64s-.37-.74-.58-1a5,5,0,0,0-1.41-.94,4.15,4.15,0,0,0-1.57,0c-.05,0,0,.07,0,.1.43.3,1,.15,1.49.28ZM5.78,21.8V16.61H6.92v4.21H8.79v1Zm3.81,0V16.61h1.13V21.8Zm5.11-.86a1.68,1.68,0,0,0,1.71-1.62h0v-.1a1.74,1.74,0,0,0-.5-1.25,1.72,1.72,0,0,0-1.22-.48,1.71,1.71,0,0,0-1.24.5,1.82,1.82,0,0,0,0,2.48,1.6,1.6,0,0,0,1.22.48Zm2.92-1.73a2.51,2.51,0,0,1-.23,1.05,2.74,2.74,0,0,1-.63.88,3.27,3.27,0,0,1-1,.59,3.46,3.46,0,0,1-1.1.21,3,3,0,0,1-1-.17,3.27,3.27,0,0,1-.89-.46A2.6,2.6,0,0,1,12,18.17a2.56,2.56,0,0,1,.64-.88,2.86,2.86,0,0,1,1-.59,3.12,3.12,0,0,1,3.2.58,2.46,2.46,0,0,1,.63.87,3,3,0,0,1,.22,1.06Zm1,2.59V16.61h1.22l2.43,3a3,3,0,0,1,.23.35,4.15,4.15,0,0,1,.26.55,3.4,3.4,0,0,1-.06-.46V16.61H23.8V21.8H22.6l-2.5-3.07a2.06,2.06,0,0,1-.23-.37,5.6,5.6,0,0,1-.27-.55,1.74,1.74,0,0,1,.06.45V21.8Z" transform="translate(-1.18 -1.91)"/>
    <path class="cls-5" d="M24.62,21.14l.68-.68a.9.9,0,0,0,.39.45,1.22,1.22,0,0,0,1.29,0,.62.62,0,0,0,.24-.5c0-.25-.26-.49-.79-.73l-.45-.2a3,3,0,0,1-1-.67,1.23,1.23,0,0,1-.27-.8,1.28,1.28,0,0,1,.54-1,2.17,2.17,0,0,1,1.39-.41,1.94,1.94,0,0,1,.86.16,1.68,1.68,0,0,1,.63.52l-.67.63a.75.75,0,0,0-.34-.34,1,1,0,0,0-.49-.12.91.91,0,0,0-.57.17.51.51,0,0,0-.2.43c0,.27.28.52.85.75l.25.1a3,3,0,0,1,1,.68,1.28,1.28,0,0,1,.33.85,1.43,1.43,0,0,1-.54,1.12,2.15,2.15,0,0,1-1.41.43,2.51,2.51,0,0,1-1.08-.21,1.5,1.5,0,0,1-.68-.59ZM8.31,13.31A1.49,1.49,0,0,0,7.8,13a1.71,1.71,0,0,0-.55-.09,1.37,1.37,0,0,0-1,.34,1.16,1.16,0,0,0-.36.91,1.18,1.18,0,0,0,.33.89,1.19,1.19,0,0,0,.9.32,1.63,1.63,0,0,0,.61-.1A1.59,1.59,0,0,0,8.29,15v.79a2.44,2.44,0,0,1-.53.21,2.33,2.33,0,0,1-.59.08,2.12,2.12,0,0,1-1.46-.54A1.79,1.79,0,0,1,5.54,13a1.37,1.37,0,0,1,.17-.17,2.11,2.11,0,0,1,1.48-.53,4,4,0,0,1,.59.07,3,3,0,0,1,.56.18ZM11,14.58l-.41-1.15a.91.91,0,0,1-.09-.17,1.61,1.61,0,0,1,0-.31.67.67,0,0,1-.07.31v.18L10,14.56ZM8.63,15.93,10,12.38H11l1.45,3.53h-.91l-.31-.75H9.74l-.26.75Zm4.19,0V12.38h.83l1.65,2.06a2.13,2.13,0,0,1,.16.25l.18.38a.72.72,0,0,0-.07-.33,1.21,1.21,0,0,1,0-.38v-2h.8v3.53h-.8l-1.73-2.08-.16-.24a3.26,3.26,0,0,1-.18-.38,1.5,1.5,0,0,1,0,.3v2.4Zm4.37,0V12.38H18l1.65,2.06a2.13,2.13,0,0,1,.16.25c.06.12.12.25.17.38a.74.74,0,0,0,0-.33,1.21,1.21,0,0,1,0-.38v-2h.79v3.53H20l-1.75-2.08-.16-.24a2.11,2.11,0,0,1-.17-.38.63.63,0,0,0,0,.3,1.27,1.27,0,0,1,0,.39v2Zm4.36,0V12.38h2.21v.68H22.33v.69h1.41v.67H22.33v.9h1.41v.62Zm2.76-.45.44-.48a.76.76,0,0,0,.27.32.8.8,0,0,0,.43.1.71.71,0,0,0,.44-.13.39.39,0,0,0,.17-.33c0-.17-.19-.33-.55-.5l-.28-.11a2.36,2.36,0,0,1-.68-.47.8.8,0,0,1-.19-.55.88.88,0,0,1,.34-.75,1.64,1.64,0,0,1,1-.28,1.52,1.52,0,0,1,.59.12,1.3,1.3,0,0,1,.43.35l-.47.44A.53.53,0,0,0,26,13a.77.77,0,0,0-.34-.08.57.57,0,0,0-.38.11.34.34,0,0,0-.15.29c0,.19.19.36.57.52l.19.07a1.74,1.74,0,0,1,.67.47.86.86,0,0,1,.23.59.92.92,0,0,1-.36.79,1.42,1.42,0,0,1-1,.29,1.74,1.74,0,0,1-.74-.14.92.92,0,0,1-.45-.4Z" transform="translate(-1.18 -1.91)"/>
  </g>
</svg>
