<svg id="Layer_1" data-name="Layer 1" xmlns="http://www.w3.org/2000/svg" width="26.98" height="12.93" viewBox="0 0 26.98 12.93">
  <defs>
    <style>
      .cls-1 {
        fill: #1d1d1b;
        fill-rule: evenodd;
      }
    </style>
  </defs>
  <g>
    <path class="cls-1" d="M18.7,24.59q.09,0,.12-.18h-.26C18.56,24.53,18.61,24.59,18.7,24.59Z" transform="translate(-5.38 -12.81)"/>
    <path class="cls-1" d="M26,24.79a.33.33,0,0,0-.16.08,1.41,1.41,0,0,1-.82.24,1.44,1.44,0,0,1-.8-.41l-.35-.29H23v0h-.92l.85.64a2.81,2.81,0,0,0,1.59.69,2.25,2.25,0,0,0,1-.29c.36-.19.54-.38.53-.55S26.08,24.79,26,24.79Z" transform="translate(-5.38 -12.81)"/>
    <path class="cls-1" d="M5.63,23.08H5.38c0,.09,0,.14.15.14l.32-.05h.87l.54,0h.19c.11,0,.16,0,.16-.13v0Z" transform="translate(-5.38 -12.81)"/>
    <path class="cls-1" d="M10.82,23.08a.13.13,0,0,0,.15.15l.17,0a5.89,5.89,0,0,1,1-.05h.71l1.75.08.31,0c.09,0,.14,0,.13-.14a.07.07,0,0,0,0-.05Z" transform="translate(-5.38 -12.81)"/>
    <path class="cls-1" d="M29.66,23.08c0,.1.05.15.14.15l.18,0a5.73,5.73,0,0,1,1-.05c.5,0,.85,0,1,0l.22,0q.15,0,.15-.12Z" transform="translate(-5.38 -12.81)"/>
    <path class="cls-1" d="M24.22,23.08h0c0,.09.05.14.15.14l.31-.05h.88l.54,0h.19c.1,0,.16,0,.15-.13v0Z" transform="translate(-5.38 -12.81)"/>
    <path class="cls-1" d="M23.81,24.34l-.52-.45c-.15-.12-.42-.31-.8-.56a5.21,5.21,0,0,0,.73-.25H17.38a.4.4,0,0,0,.3.15l.26,0h.92v0a2.7,2.7,0,0,0-.29,1.11v.06h.26s0-.05,0-.09a1.68,1.68,0,0,1,.34-.87.82.82,0,0,1,.63-.36,2.61,2.61,0,0,1,1.24.58l.94.65.12.09.35.2s.65,0,.65,0,1,0,1,0l-.18-.17Z" transform="translate(-5.38 -12.81)"/>
    <path class="cls-1" d="M24.92,18.42c0,.14,0,.29,0,.44a5.24,5.24,0,0,1-.76,3,2.34,2.34,0,0,1-2,1.13A2.83,2.83,0,0,1,20,21.81a5.87,5.87,0,0,1-1.27-3.39h-.92a5.77,5.77,0,0,0,1.66,4.09,1.21,1.21,0,0,0-.42.4l-.19-.05a1.93,1.93,0,0,1-1-.78l-2.69-3.66H13v2.81a4.42,4.42,0,0,1-.14,1.31.52.52,0,0,1-.07.15.53.53,0,0,1-.16-.13,4.42,4.42,0,0,1-.44-1.1l-.12-.4-.8-2.64L11,18.06c-.19-.62-.29-.25-.29-.22l.2.22h-.29s-.2-.14-.2-.17l0,.54v0c0,.12-.1.18-.28.18H8.22c-.18,0-.26-.07-.26-.19v0l-.17-.27c0,.23-.08,0-.08.06s-.11.09-.11.07l-.11.14-1,2.94-.17.49a3.15,3.15,0,0,1-.31.64,1,1,0,0,1-.3.36l-.21.08a.16.16,0,0,0-.1.15l.11.09.14,0h.06l1.91-.05c0-.08-.07-.13-.17-.15a1.18,1.18,0,0,1-.52-.26.77.77,0,0,1-.13-.5A3.68,3.68,0,0,1,7,21.08L7.4,20a1.69,1.69,0,0,1,.27-.59,1.06,1.06,0,0,1,.52-.08h2a.76.76,0,0,1,.39.06,1.55,1.55,0,0,1,.18.46l.29,1a6.66,6.66,0,0,1,.34,1.54c0,.28-.09.44-.28.49l-.18.05c-.09,0-.14.08-.14.16H15a.2.2,0,0,0-.16-.11,1.21,1.21,0,0,1-.79-.4,2.26,2.26,0,0,1-.18-1.11V18.79c0-.12,0-.17.11-.17a.19.19,0,0,1,.13.08l.12.16,3,4,.1.14,0,0,.15.09c0-.07.69,0,.69-.05S20,23,20,23.11l2.56.1s.18,0,.15,0,.26,0,.24,0l.32-.11a4,4,0,0,0,.61-.35,4.5,4.5,0,0,0,1.4-1.88,6.63,6.63,0,0,0,.5-2.43Z" transform="translate(-5.38 -12.81)"/>
    <path class="cls-1" d="M32.36,23.08c0-.09,0-.15-.16-.18a1.37,1.37,0,0,1-.71-.34,4,4,0,0,1-.44-1.1l-.12-.4-.8-2.64h-.95v0c0,.12-.09.18-.28.18H27.05c-.17,0-.26-.07-.26-.19v0h-.47l-1,2.94-.16.49a3.78,3.78,0,0,1-.31.64c-.13.21-.23.33-.31.36l-.21.08a.14.14,0,0,0-.09.15l.1.07s.94,0,.94,0,1.12,0,1.12,0l.06-.07c0-.08-.07-.13-.17-.15a1.12,1.12,0,0,1-.52-.26.76.76,0,0,1-.14-.5,3.78,3.78,0,0,1,.26-1.09L26.24,20a1.69,1.69,0,0,1,.27-.59,1,1,0,0,1,.51-.08h2a.69.69,0,0,1,.38.06,1.23,1.23,0,0,1,.19.46l.28,1a6.87,6.87,0,0,1,.35,1.54c0,.28-.1.44-.29.49l-.17.05c-.1,0-.14.08-.14.16h0l.11.07c0-.07,1,0,1.07,0s1.46,0,1.46,0l.06-.07Z" transform="translate(-5.38 -12.81)"/>
    <path class="cls-1" d="M16.81,15.29a7.16,7.16,0,0,1,1.94-1.85c.18-.06.28-.12.27-.2a.14.14,0,0,0-.16-.14l-.18,0-.46,0h-.43l-.52,0a4.33,4.33,0,0,1-.53,0h-.15c-.11,0-.17.05-.17.14s.08.15.25.19.41.2.41.43a1.85,1.85,0,0,1-.56,1l-2.41,2.82-.09.08-.09.08s0-.05,0-.15V14.85a3.12,3.12,0,0,1,.1-1,.89.89,0,0,1,.45-.45c.09-.05.13-.11.13-.17s0-.14-.13-.13l-.27,0h-.3l-.42,0h-.21a5,5,0,0,1-.9-.05l-.21,0a.13.13,0,0,0-.15.15q0,.11.15.15l.27.07a.72.72,0,0,1,.5.42A3,3,0,0,1,13,15v3.44l.52.26s.47-.12.47-.16,1.16,0,1.16,0l0-.12-.24-.32a.56.56,0,0,1-.13-.31.47.47,0,0,1,.13-.24Z" transform="translate(-5.38 -12.81)"/>
    <path class="cls-1" d="M9.52,12.81c-.06,0-.11.08-.16.22L7.49,18.42H8A1.71,1.71,0,0,1,8,18.17L9.13,15c0-.1.06-.15.09-.14s.1.08.14.24l.05.15.88,2.88,0,.13c0,.06,0,.1,0,.14h.94L9.67,13Q9.61,12.81,9.52,12.81Z" transform="translate(-5.38 -12.81)"/>
    <path class="cls-1" d="M28.51,13q-.07-.21-.15-.21c-.06,0-.12.08-.17.22l-1.86,5.39.06.18s.14,0,.14,0,.23-.07.23,0l0-.14a1,1,0,0,1,.07-.25L28,15c0-.1.07-.15.09-.14s.11.08.15.24l.05.15.88,2.88,0,.13a.93.93,0,0,1,0,.14l.09.2c0-.06.47,0,.47,0s.39-.05.39,0v-.18Z" transform="translate(-5.38 -12.81)"/>
    <path class="cls-1" d="M17.84,18.62h0Z" transform="translate(-5.38 -12.81)"/>
    <path class="cls-1" d="M25.74,18.15a5.93,5.93,0,0,0-1.11-3.73,3.58,3.58,0,0,0-5.93.28,6.51,6.51,0,0,0-.91,3.53v.19l.05.19s.42.08.39,0,.43-.11.47-.06v-.17q0-.41,0-.84a5.38,5.38,0,0,1,.76-3,2.32,2.32,0,0,1,2-1.16A2.92,2.92,0,0,1,23.91,15a6.78,6.78,0,0,1,1,3.42l0,.16s.44.14.46.12.25-.07.27-.05l0-.23A2.44,2.44,0,0,0,25.74,18.15Z" transform="translate(-5.38 -12.81)"/>
  </g>
</svg>
