<svg id="Layer_1" data-name="Layer 1" xmlns="http://www.w3.org/2000/svg" width="173.04" height="31.62" viewBox="0 0 173.04 31.62">
  <defs>
    <style>
      .cls-1 {
        fill: #009ace;
      }
    </style>
  </defs>
  <g>
    <path class="cls-1" d="M139.09,16.59c-.09,0-.09,0,0,0s.12,0,.1,0a.41.41,0,0,0-.22,0,3.57,3.57,0,0,1-.53,0,1.71,1.71,0,0,0-.49,0c-.27,0-.33,0-.37,0s-.08,0-.21,0-.16,0-.17,0a.07.07,0,0,0-.08,0h-1.66l.56,0c.72,0,.77,0,.12,0-.41,0-.47,0-.3,0s1.87-.05,2.43,0c.31,0,.35,0,.22,0s-.12,0-.07,0,.08,0,0,0a1.78,1.78,0,0,0-.61-.05c-.41,0-.47,0-.46,0s.12,0,.75,0,1,0,.35,0-.42-.07.2-.05c.32,0,.75,0,1,0a22.45,22.45,0,0,0-2.88-.07c-2.79-.05-4.66-.1-4.55-.13s.86,0,1.76,0,1.66,0,1.68,0a2.73,2.73,0,0,1,.49,0h.42s-1.88-.09-4-.14a7.88,7.88,0,0,1-1.15-.06h.45c.14,0,.22,0,.19,0a9.28,9.28,0,0,1,1.42,0c.28,0,.39,0,.32,0a1.35,1.35,0,0,0-.34,0c-.15,0-.23,0-.2,0a2.26,2.26,0,0,1,.69,0,2.7,2.7,0,0,0,.66,0h1a2.64,2.64,0,0,0,.42,0,4.23,4.23,0,0,0-.63,0,5.67,5.67,0,0,1-.7-.05,4.93,4.93,0,0,1,.91,0,5.15,5.15,0,0,0,.92,0,2.39,2.39,0,0,1,.64,0h.64l-2.26-.11-2.39-.11c-.16,0-.16,0,0-.05a2,2,0,0,1,.35,0c.22,0,.22,0,.05,0s-.15,0,.42,0,.45,0,.15,0l-1.22-.07c-1.25,0-3.54-.19-3.63-.22s-1.83-.08-6.23-.2c-2.12-.06-3.65-.13-3.54-.17H120a2.27,2.27,0,0,0,.57,0,.44.44,0,0,1,.23,0l.4,0a.51.51,0,0,1,.26,0c.08,0,.2,0,.14,0s0,0,.15,0a.52.52,0,0,0,.26,0,.09.09,0,0,1,.11,0,2.44,2.44,0,0,0,.58,0l2.13.06c.89,0,1.65,0,1.69,0s.94,0,1.76,0,1,0,1,.08-.16,0-.76,0c-.41,0-.81,0-.89,0s.06,0,.41,0l1.11.05a1.61,1.61,0,0,0,.61,0,2.39,2.39,0,0,1,.78,0c1.31.08,3.13.17,3.14.14s-1.79-.16-4.07-.28a6.71,6.71,0,0,1-1.35-.13,5.36,5.36,0,0,0-1.15,0,6.34,6.34,0,0,1-1.07,0,.63.63,0,0,0-.28,0,1.9,1.9,0,0,1-.33,0h-.64a8.55,8.55,0,0,1-1.08,0,4.08,4.08,0,0,0-.55,0,10.3,10.3,0,0,1-1.72,0c-.1,0,0-.06.06,0a.31.31,0,0,0,.15,0s0,0-.13,0l-.48,0-.37,0h-.76c-.6,0-.7,0-.74,0a.29.29,0,0,1-.14.05h-.15l-.32,0H116.8c-.25,0-.36,0-.36,0s.07,0,.15,0,.14,0,.15,0,0-.05-.14,0-.12,0-.1,0-.19,0-.73,0l-1.29,0c-1.08,0-1.45,0-2.48,0l-.84,0a1.31,1.31,0,0,1-.48,0c-.14,0-.14,0,0-.07s.12,0-.07,0a3.33,3.33,0,0,0-.53,0c-.59,0-1.28.08-1.77.08s-.2-.05.39-.09l.51,0h-1.87c-.56,0-1.11,0-1.21,0a.76.76,0,0,0-.34,0,1.46,1.46,0,0,1-.39,0h-.25a2.51,2.51,0,0,1-.7,0c-.09,0-.13,0-.1,0s0,0-.06,0l-.16,0a.24.24,0,0,1-.15,0,.67.67,0,0,0-.24,0c-.17,0-.34,0-.17,0a.38.38,0,0,1,.18,0s.07,0,.08,0a1.38,1.38,0,0,0-.52,0,16.1,16.1,0,0,1-1.64.07c-.52,0-.71,0-.58-.06s0,0-.58-.05c-.37,0-.74,0-.82,0a6,6,0,0,1-.88,0,7.33,7.33,0,0,0-1,0A9.71,9.71,0,0,1,96,14a3.9,3.9,0,0,0-.87,0,1.27,1.27,0,0,1-.34,0l-.88,0c-.37,0-.71,0-.75,0a.14.14,0,0,0-.11,0,1,1,0,0,1-.48,0s0,0,.14-.05.19,0,.19-.06-.12,0-.46,0H88.22c-.72,0-1.24,0-2.67,0l-2,0c-.43,0-.89,0-1,0-.32,0-3.7,0-3.9,0a4.66,4.66,0,0,1-.93,0c-.65,0-2.33,0-3.54,0-1.43,0-1.79,0-2.22,0h-.6l-.81,0-26,.36c-.84,0-1.3,0-1.35,0s-.05-.08.06-.06.1,0,.1,0-.08,0-.29,0h-.37s0,0,0,0,0,0-.08,0h-.49l-.89,0a30,30,0,0,0-3.54.5l-1,.19-.71.15-.56.12c-.66.13-1.09.19-1.7.26a6.27,6.27,0,0,0-.92.14l-.22.07h.21l1.91,0c.57,0,.55,0-.07.09a1.55,1.55,0,0,0-.42.06,1.26,1.26,0,0,1-.31,0l-.45.05L33,16l-1.58.17c-.08,0-.06,0,.05,0s.16,0,.16,0a.74.74,0,0,1-.22,0c-.27,0-.27,0,0,.11a7.72,7.72,0,0,0,1.43.1,10.29,10.29,0,0,1,1.33.09c.06,0,0,.05-.1.07l-.41,0a5.22,5.22,0,0,0-.65,0c-.42,0-.4,0,.83.06,2.18.07,4.83.24,5.53.35l.41,0c.17,0,.16,0,0,0l-.54-.13-.33-.11.39,0,1.14.1c.48.05,1.3.1,2.26.14s1.55.07,1.63.09a7,7,0,0,0,1,.12c.67,0,3.93.14,5.07.14.84,0,1.53,0,3.69,0,2.74.07,3.63.07,8.54.09l42,.09h2.49l4.68,0h1.87c.23,0,.62,0,.85,0h2.27c.17,0,.47,0,.67,0s.7,0,1.1,0h.89c.13,0,.13,0,0,0h-5l-2.21,0c-.31,0-.43,0-.39,0a.76.76,0,0,1,.3,0h.89c.75,0,6.7,0,7.56,0s1.6,0,1.66,0h.83c.83,0,1.22,0,1.94,0l1.73,0c2.13,0,3-.05,3-.08a5.48,5.48,0,0,1,1.16-.05l.77,0c.21,0,.5,0,.65,0a.93.93,0,0,0,.42,0,.64.64,0,0,1,.27,0,.26.26,0,0,0,.18,0l.39,0c.24,0,.3,0,.21,0s-.36,0-.64,0a3.87,3.87,0,0,1-.56,0,2.08,2.08,0,0,0-.61,0s-.73,0-1.73,0a8.13,8.13,0,0,1-.9,0,1.11,1.11,0,0,0-.39,0,1.64,1.64,0,0,1-.41,0c-.19,0-.29,0-.22,0s.13,0,.13,0-.05,0-.12,0h-.72a4.33,4.33,0,0,0-.64,0,4.27,4.27,0,0,1-.58,0,6.29,6.29,0,0,0-.73,0,.45.45,0,0,1-.29,0,2.1,2.1,0,0,0-.61,0h-1c-.26,0-.63,0-.82,0a1.49,1.49,0,0,1-.47,0c-.1,0-.07,0,.14,0s.27,0,.27,0,0,0-.06,0a6.89,6.89,0,0,1-1,0,.32.32,0,0,1,.18,0l.18,0a5.39,5.39,0,0,1,.81,0,4.1,4.1,0,0,0,.93,0,2.37,2.37,0,0,1,.41,0c.19,0,.22,0,.13,0h-.24c-.1,0-.12,0-.07,0a4,4,0,0,0,1,0,4.45,4.45,0,0,1,.88,0c.24,0,.26,0,.16,0s0,0,.86-.05h1.53a3.23,3.23,0,0,1,.5,0,1.68,1.68,0,0,0,.51,0,11.65,11.65,0,0,1,2-.05c.27,0,.6,0,.74,0h1a6.15,6.15,0,0,0,.78,0,13.6,13.6,0,0,0-1.91,0h-2.85a2.21,2.21,0,0,1-.76-.05,20.9,20.9,0,0,1,2.36,0c1.59,0,1.76,0,2.61,0l1.48,0,2.43,0s-.05,0-.15,0a.47.47,0,0,1-.22,0s.1,0,.34,0,.46,0,.58,0,.16,0-.17,0-.33-.05.42-.07a2.09,2.09,0,0,0,.52-.05l.16,0C139.17,16.57,139.18,16.57,139.09,16.59ZM138,16.26l.15,0s.09,0,.09,0-.07,0-.15,0S138,16.28,138,16.26Zm-.36,0,.2,0s0,0,0,0a.64.64,0,0,1-.2,0C137.52,16.3,137.51,16.3,137.64,16.28Zm-3.75-.8.34,0c.08,0-.08,0-.36,0l-.29,0Zm-1.53,0h.13c.06,0,0,0,0,0Zm-.55,0,.15,0c.06,0,.1,0,.1,0s-.08,0-.15,0S131.78,15.53,131.81,15.51Zm-2.37-.83h.15c.06,0,.1,0,.08,0a.42.42,0,0,1-.15,0C129.46,14.7,129.42,14.68,129.44,14.68Zm-94,1c-.06,0-.09,0-.06,0a.2.2,0,0,1,.11,0s.07,0,.07,0S35.48,15.71,35.42,15.71Zm.69.43h-.2q-.13,0,.15,0C36.23,16.12,36.23,16.13,36.11,16.14Zm6.08-.07c.1,0,.16,0,.13,0h-.18C42,16.08,42,16.06,42.19,16.07Zm-2.5.73c-.78,0-.87-.07-.18-.07l.69,0C40.35,16.79,40.09,16.82,39.69,16.8Zm.76,0s-.07,0-.06,0,0,0,.07,0,.07,0,.07,0S40.49,16.8,40.45,16.8Zm.47-.72c-.07,0-.11,0-.09,0H41C41,16.07,41,16.08,40.92,16.08Zm.19,0a.33.33,0,0,1,.14,0s0,0,0,0S41.09,16.08,41.11,16.07Zm1.25.77a7.81,7.81,0,0,1-1.12,0c-.31,0-.07-.07.57,0a3.34,3.34,0,0,1,.55,0C42.28,16.81,42.28,16.81,42.36,16.84Zm.55.06-.27,0c-.16,0-.14-.07,0-.06a.45.45,0,0,1,.19.05.27.27,0,0,0,.14,0s0,0,0,0S43,16.92,42.91,16.9Zm.71,0h-.34c-.07,0-.11,0-.1,0s.06,0,.13,0l.33,0,.2,0Zm.32,0c-.07,0-.07,0,0,0a.25.25,0,0,1,.13,0C44.13,16.94,44,17,43.94,16.93Zm1.73,0a2,2,0,0,0-.4,0c-.17,0-.26,0-.23,0l.36,0c.23,0,.32,0,.34.05S45.75,16.92,45.67,16.9Zm1.17,0c-.09,0-.13,0-.08,0h.17S46.94,16.88,46.84,16.87Zm3.9.05c-.12,0-.17,0-.12,0h.21C50.9,16.92,50.86,16.93,50.74,16.92Zm1.32.13A.15.15,0,0,1,52,17c-.11,0-.08,0,0,0S52.08,17.05,52.06,17.05Zm8.18.11c-.05,0-.07,0-.07,0a.09.09,0,0,1,.08,0s.07,0,.07,0S60.28,17.15,60.24,17.16Zm6.64.08H66.6c-.07,0-.11,0-.11,0a.19.19,0,0,1,.14-.05l.28,0c.13,0,.16,0,.15,0S67,17.24,66.88,17.24Zm.43-.06a.12.12,0,0,1-.11.06c-.06,0-.08,0-.06,0a.2.2,0,0,1,.12-.06S67.33,17.15,67.31,17.18Zm1,0-.24,0a2.88,2.88,0,0,1-.71,0s0,0,.08-.06.08,0,.07,0a1,1,0,0,0,.49,0,1.42,1.42,0,0,1,.5,0A.37.37,0,0,1,68.36,17.19Zm.31.08s-.07,0-.07,0l.07,0s.08,0,.07,0S68.71,17.27,68.67,17.27Zm10.09-.09c-.08,0-.14,0-.14,0a.51.51,0,0,1,.19,0C79,17.14,79,17.17,78.76,17.18Zm48.09-.93c.36,0,.32,0-.08,0-.18,0-.28,0-.25,0A1.35,1.35,0,0,1,126.85,16.25Zm-.5,0s.06,0,.06,0,0,0-.07,0-.07,0-.07,0S126.31,16.23,126.35,16.23Zm-1.1,0a2.64,2.64,0,0,1,.52,0,3.26,3.26,0,0,1,.43,0,.41.41,0,0,1-.17,0h-.51C125.29,16.28,125.2,16.28,125.25,16.26Zm1,.47s0,0-.17,0-.31,0-.43,0-.3,0-.09-.06A2.3,2.3,0,0,1,126.21,16.73Zm-1-.48-.33,0h-1.2l-1.64,0-1.75,0-1,0h3.49l2,0Zm-.69.47s-.07,0-.15,0-.14,0-.13,0a.3.3,0,0,1,.14,0A.22.22,0,0,1,124.49,16.72Zm-3.81-.32c-.52,0-.74,0-.61,0h1.39c.35,0,.41,0,.25,0Zm.81.36c-.07,0-.11,0-.09,0h.14S121.58,16.76,121.49,16.76Zm.36-.07.85,0c.35,0,.65,0,.66,0s-.1,0-.43,0h-.84C121.76,16.71,121.69,16.7,121.85,16.69Zm-2,0c-.07,0-.14,0-.13,0s.05,0,.1,0a.24.24,0,0,1,.14,0S119.92,16.71,119.84,16.71Zm3.41-1.64a6,6,0,0,1,1.06.06,20.55,20.55,0,0,1-2.33-.06A11,11,0,0,1,123.25,15.07Zm-1.69,0a.62.62,0,0,1,.23,0s-.11,0-.25,0-.24,0-.24,0A1,1,0,0,1,121.56,15Zm-.93,0c.18,0,.2,0,.09,0h-.23C120.33,15,120.39,15,120.63,15Zm-1.44,0h.55c.52,0,.7,0,.29.05a3.6,3.6,0,0,1-.9-.05A.06.06,0,0,1,119.19,15Zm-.68-.5h.21c.07,0,0,0-.09,0S118.46,14.5,118.51,14.49Zm-.29.48.56,0c.08,0-.12,0-.5,0C117.64,15,117.59,15,118.22,15Zm-.38-.52a.37.37,0,0,1,.17,0s0,0-.14,0S117.64,14.47,117.84,14.45Zm-.17.8a.51.51,0,0,1-.19,0c-.17,0-.18,0,0,0l.2,0S117.68,15.23,117.67,15.25Zm-.38-.8h.14s0,0-.05,0S117.27,14.46,117.29,14.45Zm-.17.51a.93.93,0,0,1,.26,0,1.33,1.33,0,0,1-.34,0C116.68,15,116.71,15,117.12,15Zm.13.62a2.55,2.55,0,0,0,.74,0,2.92,2.92,0,0,1,.63,0,1.76,1.76,0,0,0,.61,0,.69.69,0,0,1,.27,0l1,0a4.17,4.17,0,0,1,1,.05.31.31,0,0,0,.19,0,5.09,5.09,0,0,1,1,0h-.41a2.92,2.92,0,0,0-.5,0,3.81,3.81,0,0,1-.7,0c-.42,0-.56,0-.44,0s.16,0-.08,0a1.87,1.87,0,0,0-.43,0,8.92,8.92,0,0,1-1,0h-2.37l-1.2,0c-.21,0,.29-.09,1-.09Zm1.39.64c-.12,0-.17,0-.12,0h.21C118.8,16.22,118.76,16.22,118.64,16.22Zm-1.3,0c-.28,0-.7,0-.56,0h.42C117.46,16.19,117.49,16.19,117.34,16.21Zm-1.3.15s-.1,0-.2,0-.17,0,0,0a.53.53,0,0,1,.2,0S116,16.35,116,16.36Zm.27-1.42h.21c.07,0,0,0-.09,0S116.26,15,116.31,14.94Zm-1-.68h.13c.06,0,0,0,0,0S115.27,14.27,115.29,14.26Zm-.4,0a.34.34,0,0,1,.17,0s-.09,0-.19,0-.17,0-.17,0S114.79,14.24,114.89,14.24Zm-1.23.67h.42c.06,0,.54,0,1.06,0,1.16,0,.85.06-.4,0h-.94a1,1,0,0,1-.28,0C113.37,14.91,113.38,14.9,113.66,14.91Zm-3.87,1.51c.09,0,.1,0,0,.06a7.39,7.39,0,0,1-1.12,0,2.09,2.09,0,0,1,.58,0,.81.81,0,0,0,.24,0s0,0-.32,0c-.65,0-1,0-.89-.07s0,0-.13,0-.22,0-.19,0h.83c.44,0,.81,0,.84,0s1,0,1.47,0l1.79,0h.55c.07,0,.12,0,.12,0a15.82,15.82,0,0,1-2.64.05C109.71,16.35,109.61,16.36,109.79,16.42Zm2.36.19s.48,0,1,0,.89,0,.86,0a9.49,9.49,0,0,1-1.26,0C112.29,16.64,112.1,16.63,112.15,16.61Zm1.23-.38s-.66,0-1.36,0-1.77,0-2.39,0a14.52,14.52,0,0,1-2-.05s.09,0,.26,0l.35,0s1.34,0,2.56,0h.67a1.54,1.54,0,0,1,.32,0l.95,0c1.85,0,2.46,0,2.57.06s-.25.06-1.06,0Zm1.24-1h-.78c-.5,0-.5-.05,0-.06a7.87,7.87,0,0,1,1.14,0A.92.92,0,0,1,114.62,15.21Zm.52.36a2.73,2.73,0,0,1-.8,0c-.52,0-.31-.06.29-.06A1.88,1.88,0,0,1,115.14,15.57Zm.16-.41a.37.37,0,0,1,.17,0s0,0-.14,0S115.1,15.17,115.3,15.16Zm-2.06.05c-.23,0-.42,0-.42,0a1.09,1.09,0,0,1,.31,0C113.36,15.19,113.39,15.19,113.24,15.21Zm-.46-.31H113a.87.87,0,0,0,.2,0c.1,0,.14,0,.14,0s-.25.08-.47.06S112.66,14.91,112.78,14.9Zm-1.23,0,.65,0a1,1,0,0,1,.3,0c.22,0-.21.07-.91.07S110.81,14.88,111.55,14.87Zm-1.82,0s.06,0,.06,0,0,0-.08,0-.06,0-.06,0S109.68,14.85,109.73,14.85ZM106,14.1h.1l-.11,0c-.06,0-.1,0-.1,0S105.91,14.1,106,14.1Zm-1.52.69a.07.07,0,0,0,.08,0,1.51,1.51,0,0,1,.37,0,10.21,10.21,0,0,0,1.57,0,5.11,5.11,0,0,1,1.08.05s0,0,.06,0,1.7,0,1.69,0a14.92,14.92,0,0,1-2,0l-1.94,0c-.7,0-1,0-1-.07Zm4.66.34a.27.27,0,0,1-.13,0h-.3c-.11,0-.15,0-.12,0a1,1,0,0,1,.3,0C109,15.1,109.11,15.11,109.11,15.13Zm-4.43-.05c-.1,0-.14,0-.09,0h.18S104.78,15.08,104.68,15.08Zm-.58,0a.47.47,0,0,1,.17,0s0,0-.09,0S104.05,15.08,104.1,15.07Zm-.51.4c.46,0,1.29,0,1.85,0l1.55,0,1.54,0,1.26,0c.66,0,2.94,0,3,0s-.19.05-2.08.05-4.15-.07-4.28-.11H106c-.61,0-3.39,0-3.3,0S103.13,15.47,103.59,15.47Zm-1.2,0s.08,0,0,0a.11.11,0,0,1-.1,0C102.24,15.48,102.26,15.47,102.39,15.47Zm-.67,0s.06,0,.06,0,0,0-.08,0-.06,0-.06,0S101.67,15.44,101.72,15.45Zm-1-.73h.57c.12,0,.22,0,.22,0a4.76,4.76,0,0,1-.93.06C100.25,14.78,100.36,14.73,100.72,14.72ZM94,15l.11,0s.07,0,.06,0-.05,0-.11,0S93.92,15,94,15Zm-2.16,1c.09,0,.68,0,1.31,0h4.07l1.6,0a3.47,3.47,0,0,1,.62,0,.84.84,0,0,0,.26,0c.15,0,1.42,0,2.18,0,.39,0,.78,0,.86,0l2.11,0,2.43,0a.68.68,0,0,1,.23,0s-.34.07-.64.05h-.53c-.18,0-1.14,0-2.15,0L92.4,16C91.88,16,91.68,16,91.79,16Zm15.36.3c-.15,0-.14,0,0,0l.2,0C107.45,16.27,107.29,16.32,107.15,16.31Zm-.44,0a.13.13,0,0,1-.07,0,0,0,0,0,1,0,0s0,0,.07,0S106.74,16.26,106.71,16.28ZM89,16.32a5.65,5.65,0,0,1,.64,0c.64,0,1.19,0,1.28,0a2.41,2.41,0,0,1,.49,0h1.2c.12,0,3.4,0,3.52,0h6.58c.27,0,3.41,0,3.66,0s.17,0,.12,0l-1.09.06c-.34,0-.35,0-.19,0s.11,0-.29,0H103.7c-.45,0-.92,0-1.06,0s-.23,0-.17,0,1,0,1.86,0a.54.54,0,0,0,.22,0,31,31,0,0,0-3.55-.05c-.24,0-.48,0-.54,0-.4,0-.7,0-.64,0a2.58,2.58,0,0,0,.66,0,3.74,3.74,0,0,1,.69,0c.09,0,.08,0,0,0H99.62c-1.34,0-1.59,0-1.39-.06s.07,0,0,0a.5.5,0,0,0-.19,0,2.76,2.76,0,0,1-.73,0H95l-3.09,0A22.27,22.27,0,0,1,89,16.32Zm16.93.29c-.4,0-.81,0-.73-.06H106C106.75,16.57,106.74,16.6,106,16.61Zm-1-.05c-.2,0-.26,0-.25,0a.54.54,0,0,1,.2,0C105.1,16.54,105.1,16.54,105,16.56Zm-.46,0c-.1,0-.13,0-.08,0a.47.47,0,0,1,.17,0S104.62,16.54,104.52,16.54Zm-1.13,0c-.21,0-.29,0-.19,0a2.54,2.54,0,0,1,.39,0Zm-.84,0c-.21,0-.3,0-.19,0l.38,0Zm-.49,0a3.06,3.06,0,0,1-.5,0h-.74a3.16,3.16,0,0,1-.56,0c-.15,0,0,0,.39,0h1.06C102,16.52,102.13,16.53,102.06,16.54Zm-16.31,0c-.07,0-.11,0-.09,0h.14S85.84,16.58,85.75,16.58Zm3.54.6c-.06,0-.11,0-.1,0s0,0,.07,0a.15.15,0,0,1,.1,0S89.35,17.18,89.29,17.18Zm5,.15a11,11,0,0,1-1.4,0l-.63,0h-.57l-.36,0c-.34,0-.26-.06.16-.08s2.78.06,2.77.1,0,0,.12,0S94.45,17.32,94.33,17.33Zm.53,0c-.14,0-.19,0-.12,0H95C95.05,17.31,95,17.32,94.86,17.31Zm1.49-.09q-.21,0-.21,0s.08,0,.17,0S96.44,17.2,96.35,17.22Zm.4,0c-.07,0-.12,0-.09,0h.13C96.85,17.23,96.83,17.24,96.75,17.23Zm3.23.15c-.13,0-.45,0-.4,0l.28,0C100,17.36,100.07,17.36,100,17.38Zm1.49,0s-.09,0-.27,0-.45,0-.67,0c-.38,0-.4,0-.35-.05s0-.05-2.17-.07c-.49,0-.68,0-.67,0a.89.89,0,0,1,.37,0h1a.74.74,0,0,1,.21,0h1.48l1.06,0c.33,0,.42,0,.34,0l-.23,0C101.53,17.32,101.47,17.33,101.47,17.36Zm-1.46-.3a.52.52,0,0,1,.24,0c.15,0,.16,0,.08,0S100,17.09,100,17.06Zm1.88.32c-.21,0-.3,0-.19,0l.38,0C102.18,17.39,102.09,17.39,101.89,17.38Zm.33-.07c-.12,0-.17,0-.12,0a.77.77,0,0,1,.21,0C102.38,17.31,102.34,17.31,102.22,17.31Zm1.26.11-.87,0c-.3,0-.31,0-.09,0l.83,0a2.52,2.52,0,0,1,.61,0A2,2,0,0,1,103.48,17.42Zm1,0a.45.45,0,0,1-.22,0,.34.34,0,0,1-.17,0s.1,0,.22,0S104.48,17.41,104.45,17.42Zm4.19.18c-.1,0-.18,0-.17,0a.44.44,0,0,1,.18,0c.1,0,.17,0,.17,0A.53.53,0,0,1,108.64,17.6Zm.63,0a1.51,1.51,0,0,1-.29,0,1.18,1.18,0,0,1,.3,0,1.16,1.16,0,0,1,.29,0A1.13,1.13,0,0,1,109.27,17.59Zm1,0c-.07,0-.11,0-.08,0h.13C110.37,17.59,110.35,17.6,110.26,17.6Zm1,0h-.58c-.13,0-.22,0-.21,0a1.88,1.88,0,0,1,.42,0,4,4,0,0,1,.58,0C111.56,17.61,111.53,17.61,111.23,17.6Zm.47,0s-.07,0-.07,0,0,0,.08,0,.07,0,.06,0S111.74,17.62,111.7,17.62Zm8.47-.26c-.12,0-.17,0-.12,0a.51.51,0,0,1,.21,0C120.32,17.36,120.29,17.36,120.17,17.36Zm3,0a1.2,1.2,0,0,1,.36,0c-.06,0-.72,0-1.29,0h-1c-.5,0-.65,0-.61,0s0,0,0,0-.06,0,0-.05,0,0-.56,0c-.71,0-1,0-.38.07H120l-2.11,0,.45,0c.61,0,.35.06-.47.06h-2c-.79,0-1.38,0-1.4,0s-.5-.05-.47,0a2.23,2.23,0,0,1-.73,0l-.13,0c-.1,0-.1,0,0,0s.05,0-.12,0h-.66c-.56,0-.52,0,.06,0a15.89,15.89,0,0,0-1.91,0c-.42,0-.39,0,.28,0,1.24,0,1,.07-.27.07-2.54,0-2.59,0-3.51-.08-.37,0-.72,0-.77,0s-.49,0-1,0l-1.45,0c-.56,0-.79,0-.38-.06h.83a2.3,2.3,0,0,0,.52,0c-.07,0-.11,0-.08,0a2,2,0,0,1,.6,0,11.42,11.42,0,0,0,1.74.07h3.07l2.94,0c.62,0,1.22,0,1.34,0h2.52c.54,0,1,0,1.06,0s0,0,0,0,0-.07.48-.08c.2,0,.3,0,.29,0s.1,0,.22,0,.2,0,.15,0a10.63,10.63,0,0,1,1.45,0,1,1,0,0,0,.3,0,5.09,5.09,0,0,1,1,.06c.09,0,.09,0,0,0h-.46c-.08,0-.11,0-.07,0A18.8,18.8,0,0,0,123.12,17.39Zm-5-.27a2.92,2.92,0,0,1,.49,0c.49,0,.43,0-.15,0C118.16,17.14,118.06,17.14,118.14,17.12Zm1.5,0a.28.28,0,0,1,.13,0c.06,0,0,0,0,0S119.61,17.13,119.64,17.12Zm1.62,0c.21,0,.21,0,0,0h-.22C121,17.11,121,17.1,121.26,17.11Zm6.17-.15-1.29,0h-8.43c-.83,0-2.67,0-4.36-.05h-1.26s0,0,.18,0,.25,0,.24,0a2,2,0,0,0,.71,0,1.61,1.61,0,0,1,.59,0l.63,0c1.56,0,2.18,0,2.26,0s-.45,0-1.12,0c-1.39,0-1.58,0-2.31,0s-1.89,0-3,0c-.56,0-1.15,0-1.32,0a8.1,8.1,0,0,1-1.32,0c-.36,0-.51,0-.41,0s-.5-.05-.74,0-.1,0,.16,0a1,1,0,0,1,.33,0s-1.41,0-2,0-.37-.05.22,0l.5,0c.08,0,0,0-.17,0h-1.69c-.5,0-.55,0-.5-.05s0-.05-.45-.05H102c-.36,0-1.07,0-1.53,0-.15,0-.25,0-.23,0a9.47,9.47,0,0,1-1.8,0c-.27,0-.28,0-.08,0s.23,0,.23,0a.38.38,0,0,1,.17,0c.09,0-.08,0-.37,0l-2.21,0c-1.64-.05-2.42-.06-3.05-.05s-1.72,0-2.37,0a.79.79,0,0,0-.24,0,2.19,2.19,0,0,1-.41,0h-.62c-.29,0-.84-.05-.71-.08s0,0-.08,0a.91.91,0,0,0-.25,0,6.07,6.07,0,0,1-1.11-.06.72.72,0,0,1,.29,0c.15,0,.24,0,.25,0s-.16,0-.71,0-.71,0-.57-.06a1.3,1.3,0,0,1,.46,0c.21,0,.27,0,.18,0s-.1,0,.11,0h2.46c.58,0,.63,0,.62.06a16.73,16.73,0,0,0,2.42.05H94c.29,0,.5,0,.27,0-.06,0-.11,0-.11,0s.06,0,.13,0h4.91l.84,0-.62,0-.68.05s.92,0,1.63,0a6.22,6.22,0,0,1,1.22.06,2.1,2.1,0,0,0,.67,0h1.24c.34,0,.79,0,1,0s.92,0,1.6,0l1.93,0c.72,0,1.45,0,1.5,0s-1.62-.05-3.24-.06c-.22,0-.31,0-.26,0a8.25,8.25,0,0,1,1,0h1.48c.14,0,.23,0,.23,0a.36.36,0,0,1,.19,0c.12,0,.18,0,.17,0s.1,0,.68.05l2.54,0c1.22,0,1.83,0,1.82.05s-.11,0-.25,0-.37,0-.3,0,1.72,0,2.17,0a10.26,10.26,0,0,1,1.23,0,5.5,5.5,0,0,0,.93,0,.18.18,0,0,1,.15,0s.11,0,.29,0a11.1,11.1,0,0,1,1.19,0c.52,0,1.09,0,1.27,0a8.79,8.79,0,0,1,1.43,0s.07,0,.43,0c.89,0,1.17,0,1.46,0a.93.93,0,0,1,.34,0,.17.17,0,0,0,.13,0,8.8,8.8,0,0,1,1.41,0h.61a.88.88,0,0,1,.23,0,.83.83,0,0,0,.27,0,2,2,0,0,1,.55,0l.41.05Zm2.6-1.34a1,1,0,0,1-.38,0h.26C130.11,15.6,130.14,15.61,130,15.62Zm.37,1.11.64,0c.29,0,.48,0,.42,0A6,6,0,0,1,130.4,16.73Zm2.13.1a8.05,8.05,0,0,1-1.09,0l.78,0C132.62,16.81,132.72,16.82,132.53,16.83Zm.2-.74a1.31,1.31,0,0,1,.28,0c.09,0,0,0-.12,0S132.66,16.09,132.73,16.09Zm.88.27-.3,0a1.4,1.4,0,0,1-.35,0c-.19,0-.18,0,.12,0h.5C133.71,16.35,133.72,16.35,133.61,16.36Zm.37-.17a1,1,0,0,1,.24,0c.07,0,0,0-.12,0S133.91,16.19,134,16.19Zm.33.29c-.34,0-.31,0,.05,0a.67.67,0,0,1,.25,0A1,1,0,0,1,134.31,16.48Zm.55,0c-.07,0-.12,0-.09,0a.28.28,0,0,1,.13,0C135,16.5,134.94,16.5,134.86,16.5Zm-.37-.12-.46,0h.7C135.43,16.37,135.27,16.39,134.49,16.38Zm1.92.35a4.82,4.82,0,0,1-1.22,0s.05,0,.09,0,.41,0,.79,0a5.5,5.5,0,0,1,.79,0C136.93,16.7,136.76,16.72,136.41,16.73Z"/>
    <path class="cls-1" d="M43.51,14.19a.19.19,0,0,0,.15,0c.09,0,.05-.07-.11,0S43.45,14.17,43.51,14.19Z"/>
    <path class="cls-1" d="M93,14a.12.12,0,0,0,.08,0s0,0-.07,0-.08,0-.08,0S93,14,93,14Z"/>
    <path class="cls-1" d="M118.42,14.28h-.21l.12,0C118.44,14.3,118.48,14.3,118.42,14.28Z"/>
    <path class="cls-1" d="M119.13,17.77c-.12,0-.2-.05-.21,0a.27.27,0,0,0,.15,0C119.2,17.8,119.21,17.79,119.13,17.77Z"/>
    <path class="cls-1" d="M120.72,17.63h-.13s0,0,.09,0S120.78,17.64,120.72,17.63Z"/>
    <path class="cls-1" d="M122.61,17.61h-.82c-.75,0-.83,0-.11,0a5.45,5.45,0,0,0,1.14,0S122.75,17.6,122.61,17.61Z"/>
    <path class="cls-1" d="M128.49,17.57h-1.28a9.43,9.43,0,0,0-1,0,.22.22,0,0,1-.12,0,3.43,3.43,0,0,0-.66,0c-.57,0-1,0-2.1,0a1,1,0,0,0-.31,0s.42,0,.9,0h3.33c.93,0,1.83,0,1.91-.05S128.92,17.55,128.49,17.57Z"/>
    <path class="cls-1" d="M124.57,14.63c-.12,0-.1,0,.34,0h.61c.09,0,.16,0,.16,0a2.7,2.7,0,0,0-.48,0A2.27,2.27,0,0,0,124.57,14.63Z"/>
    <path class="cls-1" d="M125.86,14.69h.2c.08,0,.11,0,.07,0l-.19,0C125.83,14.62,125.77,14.67,125.86,14.69Z"/>
    <path class="cls-1" d="M126,17.23s0,0,.08,0,.14,0,.09,0A.49.49,0,0,0,126,17.23Z"/>
    <path class="cls-1" d="M128,14.36h-.28c-.07,0,0,0,.16,0S128.1,14.37,128,14.36Z"/>
    <path class="cls-1" d="M128.65,17.26c-.05,0,0,0,.12,0s.16,0,.09,0A.74.74,0,0,0,128.65,17.26Z"/>
    <path class="cls-1" d="M129.82,14.75l.1,0c.05,0,.1,0,.1,0s0,0-.09,0Z"/>
    <path class="cls-1" d="M129.84,17.59a.89.89,0,0,0,.33,0c.05,0,0,0-.24,0C129.54,17.55,129.49,17.56,129.84,17.59Z"/>
    <path class="cls-1" d="M130.07,17.25c-.06,0,0,0,.08,0s.14,0,.09,0Z"/>
    <path class="cls-1" d="M130.58,14.84a.3.3,0,0,0,.16,0c.06,0,0,0-.07,0S130.47,14.81,130.58,14.84Z"/>
    <path class="cls-1" d="M131.46,17.06H131c.13,0,.34,0,.46,0S131.62,17.07,131.46,17.06Z"/>
    <path class="cls-1" d="M131.54,14.6h.14s-.06,0-.13,0h-.15Z"/>
    <path class="cls-1" d="M131.3,17.24s0,0,.09,0,.1,0,.05,0Z"/>
    <path class="cls-1" d="M132.53,14.66l.47,0a.42.42,0,0,0,.15,0c.07,0,0,0-.21,0a4.78,4.78,0,0,1-.57,0c-.16,0-.27,0-.27,0Z"/>
    <path class="cls-1" d="M133.82,14.91l2.87.16-1-.08a15.62,15.62,0,0,0-2-.11S133.77,14.91,133.82,14.91Z"/>
    <path class="cls-1" d="M135.46,17.21h-.61c-.61,0-.72,0-.45.05a2.38,2.38,0,0,0,.38,0l.46,0a.78.78,0,0,0,.27,0S135.49,17.2,135.46,17.21Z"/>
    <path class="cls-1" d="M134.91,15.27c-.07,0,0,0,.15,0s.23,0,.09,0S135,15.24,134.91,15.27Z"/>
    <path class="cls-1" d="M134.67,17.38c-.11,0-.15,0-.08.06s.17,0,.18,0S134.73,17.38,134.67,17.38Z"/>
    <path class="cls-1" d="M135.2,15.76s0,0,.08,0,.11,0,.05,0A.31.31,0,0,0,135.2,15.76Z"/>
    <path class="cls-1" d="M135.21,17s.1,0,.23,0,.31,0,.27,0A1.62,1.62,0,0,0,135.21,17Z"/>
    <path class="cls-1" d="M136.06,14.87c.1,0,.14,0,.09,0H136S136,14.86,136.06,14.87Z"/>
    <path class="cls-1" d="M136.38,14.89a.27.27,0,0,0,.15,0s0,0-.07,0a.48.48,0,0,0-.16,0S136.32,14.88,136.38,14.89Z"/>
    <path class="cls-1" d="M136.8,15.9c-.13,0,0,0,.28,0h.52A4.58,4.58,0,0,0,136.8,15.9Z"/>
    <path class="cls-1" d="M137.85,15.93c.12,0,.16,0,.09,0a.74.74,0,0,0-.21,0S137.73,15.92,137.85,15.93Z"/>
    <path class="cls-1" d="M137.65,17.16a1.31,1.31,0,0,0,.36,0s-.06,0-.19,0S137.49,17.15,137.65,17.16Z"/>
    <path class="cls-1" d="M138,16.79l-.21,0H138a2.24,2.24,0,0,0,.39,0c.13,0,.13,0,0,0Z"/>
    <path class="cls-1" d="M138.24,15.94c.1,0,.14,0,.09,0h-.18C138.1,15.93,138.14,15.94,138.24,15.94Z"/>
    <path class="cls-1" d="M138.65,16.68l-.08,0,.07,0a.12.12,0,0,0,.08,0S138.69,16.67,138.65,16.68Z"/>
    <path class="cls-1" d="M138.89,16.3c-.13,0-.14.09,0,.07h2.35C141.16,16.35,139,16.27,138.89,16.3Z"/>
    <path class="cls-1" d="M139.61,16.65a3.73,3.73,0,0,1-.48,0c-.11,0-.12,0-.06,0s.05,0,0,.06-.05,0,0,0,.13,0,.13,0a1,1,0,0,1,.32,0,1.81,1.81,0,0,0,.37,0S139.85,16.65,139.61,16.65Z"/>
    <path class="cls-1" d="M139.48,16.6l.15,0s0,0,0,0-.18,0-.24,0S139.4,16.61,139.48,16.6Z"/>
    <path class="cls-1" d="M140,16.67a4,4,0,0,0,.54,0,3,3,0,0,0,.57,0A7.87,7.87,0,0,0,140,16.67Z"/>
    <path class="cls-1" d="M141.79,16.38a.74.74,0,0,0-.21,0c-.05,0,0,0,.12,0S141.86,16.39,141.79,16.38Z"/>
    <path class="cls-1" d="M90.19,16.78a.28.28,0,0,0-.13,0s0,0,.08,0S90.25,16.79,90.19,16.78Z"/>
    <path class="cls-1" d="M90.31,16.55a.33.33,0,0,0-.14,0h.09C90.35,16.57,90.36,16.56,90.31,16.55Z"/>
    <path class="cls-1" d="M97.81,16.56l-1,0c-.14,0-.25,0-.12.05a15.74,15.74,0,0,0,2,0A4.15,4.15,0,0,0,97.81,16.56Z"/>
    <path class="cls-1" d="M98.85,16.79h-.13s0,0,.08,0S98.91,16.8,98.85,16.79Z"/>
    <path class="cls-1" d="M101.3,16.82s-.34,0-.73,0c-.64,0-.56,0,.68,0a14.94,14.94,0,0,0,2,0C103,16.85,101.3,16.8,101.3,16.82Z"/>
    <path class="cls-1" d="M100.47,16.72s0,0-.13,0l-.18,0s0,0,.13,0S100.47,16.74,100.47,16.72Z"/>
    <path class="cls-1" d="M103.69,16.87c-.16,0-.19,0-.08,0a.26.26,0,0,0,.15,0C103.83,16.88,103.81,16.87,103.69,16.87Z"/>
    <path class="cls-1" d="M105.91,17.07c-.07,0,0,0,.12,0s.19,0,.12,0Z"/>
    <path class="cls-1" d="M108.2,16.89c-.07,0,0,0,.12,0s.19,0,.13,0Z"/>
    <path class="cls-1" d="M110.05,17s0,0,.09,0,.14,0,.09,0Z"/>
    <path class="cls-1" d="M110.48,16.94s0,0,.12,0,.16,0,.09,0A.77.77,0,0,0,110.48,16.94Z"/>
    <path class="cls-1" d="M112.66,16.78c-.07,0,0,0,.12,0s.19,0,.12,0Z"/>
    <path class="cls-1" d="M109.37,17.37c-.07,0,0,0,.12,0s.19,0,.12,0Z"/>
    <path class="cls-1" d="M113.41,17.4s0,0,.09,0,.14,0,.09,0Z"/>
    <path class="cls-1" d="M117.74,17.4h-.13s0,0,.09,0S117.8,17.41,117.74,17.4Z"/>
    <path class="cls-1" d="M118.25,17.27a.31.31,0,0,0-.18,0s0,0,.17,0,.2,0,.18,0A.34.34,0,0,0,118.25,17.27Z"/>
    <path class="cls-1" d="M120.85,17.37h-.14s0,0,.09,0S120.9,17.38,120.85,17.37Z"/>
    <path class="cls-1" d="M121,15.68a.3.3,0,0,0,.16,0c.06,0,0,0-.07,0S120.93,15.64,121,15.68Z"/>
  </g>
</svg>
