<svg id="Layer_1" data-name="Layer 1" xmlns="http://www.w3.org/2000/svg" width="72.18" height="35" viewBox="0 0 72.18 35"><defs><style>.cls-1{fill:#1d1d1c;}</style></defs><path class="cls-1" d="M7.75,17.69H10v3.2c0,1.61-.81,2.53-2.36,2.53s-2.36-.92-2.36-2.53V15.65c0-1.61.8-2.53,2.36-2.53S10,14,10,15.65v1H8.47V15.55c0-.72-.32-1-.82-1s-.82.27-.82,1V21c0,.72.32,1,.82,1s.82-.26.82-1V19.13H7.75Z"/><polygon class="cls-1" points="12.25 19.97 10.26 13.23 11.91 13.23 13.12 17.82 14.33 13.23 15.84 13.23 13.84 19.97 13.84 23.3 12.25 23.3 12.25 19.97"/><polygon class="cls-1" points="19.82 20.39 20.9 13.23 23.1 13.23 23.1 23.3 21.61 23.3 21.61 16.08 20.51 23.3 19.02 23.3 17.84 16.18 17.84 23.3 16.45 23.3 16.45 13.23 18.66 13.23 19.82 20.39"/><path class="cls-1" d="M26.38,13.12c1.54,0,2.33.92,2.33,2.53V16h-1.5v-.42c0-.72-.28-1-.79-1s-.79.27-.79,1c0,2.07,3.1,2.46,3.1,5.34,0,1.61-.81,2.53-2.36,2.53S24,22.5,24,20.89v-.62H25.5V21c0,.72.32,1,.82,1s.82-.26.82-1c0-2.07-3.09-2.46-3.09-5.34,0-1.61.79-2.53,2.33-2.53"/><polygon class="cls-1" points="31.21 23.3 29.63 23.3 29.63 13.23 31.21 13.23 31.21 17.55 33.01 17.55 33.01 13.23 34.62 13.23 34.62 23.3 33.01 23.3 33.01 18.99 31.21 18.99 31.21 23.3"/><path class="cls-1" d="M40.89,23.31H39.3L39,21.48H37.08l-.27,1.83H35.36L37,13.24h2.31Zm-3.61-3.2h1.53L38.05,15Z"/><path class="cls-1" d="M44.94,23.31a3,3,0,0,1-.15-1.24V20.49c0-.94-.31-1.28-1-1.28h-.55v4.1H41.63V13.24H44c1.64,0,2.34.76,2.34,2.31v.79a2,2,0,0,1-1,2.05c.79.33,1.05,1.09,1.05,2.14v1.55a3,3,0,0,0,.17,1.23Zm-1.73-8.64v3.1h.62c.59,0,1-.26,1-1.07v-1c0-.72-.25-1-.81-1Z"/><polygon class="cls-1" points="49.48 19.29 48.99 20.21 48.99 23.3 47.41 23.3 47.41 13.23 48.99 13.23 48.99 17.62 51.06 13.23 52.65 13.23 50.45 17.72 52.65 23.3 51.02 23.3 49.48 19.29"/><polygon class="cls-1" points="66.93 13.23 53.74 13.23 63.27 14.84 59.39 20.78 59.06 20.78 58.52 21.31 57.95 20.78 57.8 20.78 57.25 21.32 56.71 20.78 56.53 20.78 55.98 21.32 55.42 20.78 53.74 20.78 55.96 21.64 56.55 21.36 56.89 22 57.05 22.07 57.74 21.73 58.09 22.48 58.23 22.53 57.73 23.31 66.93 13.23"/><polygon class="cls-1" points="55.31 15.52 59.19 16.44 57.52 16.62 55.31 15.52"/></svg>